<?xml version="1.0" encoding="UTF-8"?>
<svg version="1.1" xmlns="http://www.w3.org/2000/svg" width="512" height="512">
<path d="M0 0 C3.97006243 2.61443136 6.83420288 5.99027914 9.8984375 9.57421875 C12.46401546 12.53560149 15.10050601 15.42627245 17.75 18.3125 C18.22195801 18.828125 18.69391602 19.34375 19.18017578 19.875 C21.40668053 22.29957537 23.64473668 24.69969283 26 27 C26.26119629 26.41661865 26.52239258 25.8332373 26.79150391 25.23217773 C28.07292664 22.86529933 29.47569977 21.22406327 31.3359375 19.28515625 C31.98820313 18.59873047 32.64046875 17.91230469 33.3125 17.20507812 C33.993125 16.49802734 34.67375 15.79097656 35.375 15.0625 C40.49343357 9.75551545 40.49343357 9.75551545 45.2578125 4.13671875 C48.37829412 0.30958098 53.04729289 -2.39967187 58 -3 C65.95997845 -3.53066523 71.7516704 -2.13114703 77.9375 3.0625 C82.61495992 7.41107602 86.79287039 12.20315308 91 17 C92.4975607 18.66885881 93.99754746 20.33554389 95.5 22 C248.5 192 248.5 192 250.73828125 194.5 C252.26023828 196.18230138 253.79977367 197.84884768 255.35546875 199.5 C266.0022807 210.91366775 270.76855127 220.89443397 270.3671875 236.4453125 C269.69949889 247.89072653 263.75598684 255.10936061 256 263 C254.86453017 264.28247262 253.73885853 265.57371335 252.625 266.875 C249.21520847 270.78994583 245.70660037 274.61177396 242.19238281 278.43261719 C237.75802997 283.25546911 233.37497099 288.12324023 229 293 C227.50028872 294.66692647 226.00028679 296.33359149 224.5 298 C223.38625 299.2375 223.38625 299.2375 222.25 300.5 C89.5 448 89.5 448 87.25390625 450.4765625 C85.71546247 452.19897962 84.20330065 453.94514418 82.71484375 455.7109375 C77.58927945 461.70688065 73.4051067 466.24505196 65.37109375 467.3671875 C58.09769639 467.71113119 51.76604414 466.14802419 46.0793457 461.39453125 C44.26627291 459.57073316 42.56102882 457.6916409 40.875 455.75 C40.27389404 455.08266846 39.67278809 454.41533691 39.0534668 453.7277832 C37.35238486 451.83238422 35.67201219 449.9210465 34 448 C33.22527344 447.11183594 32.45054687 446.22367187 31.65234375 445.30859375 C30.53518361 444.02065754 29.42606167 442.72560933 28.33203125 441.41796875 C26.85835258 439.7418777 26.85835258 439.7418777 24 438 C23.62230469 438.43828125 23.24460938 438.8765625 22.85546875 439.328125 C19.08774708 443.66938744 15.25449771 447.94624848 11.375 452.1875 C10.92020264 452.68604492 10.46540527 453.18458984 9.99682617 453.69824219 C-1.47528872 466.20270202 -1.47528872 466.20270202 -9.6796875 467.38671875 C-17.37147988 467.69566886 -22.49239714 466.10499106 -28.24609375 461.01171875 C-32.40572967 456.95028672 -36.2700247 452.64004099 -40.0546875 448.23046875 C-42.48723615 445.44134169 -44.99178614 442.72082451 -47.5 440 C-51.10037579 436.09041547 -54.64418132 432.14132925 -58.125 428.125 C-60.54550075 425.38176582 -63.02200642 422.69115432 -65.5 420 C-69.10012756 416.09018405 -72.64417605 412.14133532 -76.125 408.125 C-78.54550075 405.38176582 -81.02200642 402.69115432 -83.5 400 C-87.10012756 396.09018405 -90.64417605 392.14133532 -94.125 388.125 C-96.54550075 385.38176582 -99.02200642 382.69115432 -101.5 380 C-105.10012756 376.09018405 -108.64417605 372.14133532 -112.125 368.125 C-114.54550075 365.38176582 -117.02200642 362.69115432 -119.5 360 C-123.10012756 356.09018405 -126.64417605 352.14133532 -130.125 348.125 C-132.54550075 345.38176582 -135.02200642 342.69115432 -137.5 340 C-141.10012756 336.09018405 -144.64417605 332.14133532 -148.125 328.125 C-150.54550075 325.38176582 -153.02200642 322.69115432 -155.5 320 C-159.10012756 316.09018405 -162.64417605 312.14133532 -166.125 308.125 C-168.54550075 305.38176582 -171.02200642 302.69115432 -173.5 300 C-177.10012756 296.09018405 -180.64417605 292.14133532 -184.125 288.125 C-186.54550142 285.38176506 -189.02204178 282.69118757 -191.5 280 C-195.14311639 276.04254664 -198.74686697 272.05939933 -202.25390625 267.98046875 C-203.54343668 266.51784699 -204.86966323 265.08739044 -206.21484375 263.67578125 C-214.88831627 254.48276628 -220.90731471 244.97028918 -221.02734375 232.05859375 C-220.22219377 215.89365957 -211.39901082 206.33624189 -200.8828125 195.09765625 C-198.68758936 192.74926159 -196.53985148 190.36993082 -194.4375 187.9375 C-191.52202083 184.56580893 -188.51924358 181.27857133 -185.5 178 C-182.46109823 174.69973124 -179.438439 171.39050653 -176.5 168 C-173.0932265 164.0691075 -169.56997215 160.24803427 -166.046875 156.421875 C-163.49444857 153.64505943 -160.97016712 150.85019283 -158.5 148 C-155.0932265 144.0691075 -151.56997215 140.24803427 -148.046875 136.421875 C-145.49444857 133.64505943 -142.97016712 130.85019283 -140.5 128 C-137.0932265 124.0691075 -133.56997215 120.24803427 -130.046875 116.421875 C-127.49444857 113.64505943 -124.97016712 110.85019283 -122.5 108 C-119.0932265 104.0691075 -115.56997215 100.24803427 -112.046875 96.421875 C-109.49444857 93.64505943 -106.97016712 90.85019283 -104.5 88 C-101.0932265 84.0691075 -97.56997215 80.24803427 -94.046875 76.421875 C-91.49444857 73.64505943 -88.97016712 70.85019283 -86.5 68 C-83.0932265 64.0691075 -79.56997215 60.24803427 -76.046875 56.421875 C-73.49444857 53.64505943 -70.97016712 50.85019283 -68.5 48 C-65.0932265 44.0691075 -61.56997215 40.24803427 -58.046875 36.421875 C-55.49444857 33.64505943 -52.97016712 30.85019283 -50.5 28 C-47.0973631 24.0738805 -43.58090826 20.25493377 -40.05786133 16.43725586 C-37.37644579 13.52517096 -34.75556176 10.57470548 -32.1875 7.5625 C-23.27928964 -2.63952186 -12.56289012 -6.40624198 0 0 Z " fill="#DC7ABF" transform="translate(231,24)"/>
<path d="M0 0 C3.97075042 2.61488442 6.83998992 5.98805657 9.89453125 9.58203125 C11.50623718 11.43295142 13.1399166 13.22876862 14.82421875 15.01171875 C15.31712402 15.53636719 15.8100293 16.06101562 16.31787109 16.6015625 C17.29583097 17.63926707 18.27904905 18.67204742 19.26806641 19.69921875 C22.00810962 22.6229683 23.78848601 25.16937486 25 29 C24.50371094 29.4846875 24.00742188 29.969375 23.49609375 30.46875 C19.48455614 34.42700343 15.65491744 38.4629335 11.98046875 42.734375 C9.53394232 45.53316263 7.01923279 48.26689817 4.5 51 C1.46093308 54.30011301 -1.56156514 57.60949824 -4.5 61 C-7.9067735 64.9308925 -11.43002785 68.75196573 -14.953125 72.578125 C-18.06435315 75.96286772 -21.11117874 79.39312709 -24.1171875 82.87109375 C-26.09344728 85.10566135 -28.11913482 87.29077974 -30.15087891 89.47485352 C-39.91268326 99.54236628 -39.91268326 99.54236628 -43.3125 112.6875 C-43.34988281 113.68136719 -43.38726562 114.67523438 -43.42578125 115.69921875 C-42.39835845 123.66410192 -37.64479137 128.94997887 -32.1875 134.5 C-30.92364312 135.81820935 -29.6606114 137.13721037 -28.3984375 138.45703125 C-27.80256836 139.07529785 -27.20669922 139.69356445 -26.59277344 140.33056641 C-24.77514436 142.23567794 -23.02877732 144.19075785 -21.3125 146.1875 C-18.44315317 149.52175366 -15.47997676 152.76483875 -12.5 156 C-8.89979545 159.90974355 -5.35582218 163.85866671 -1.875 167.875 C0.54550075 170.61823418 3.02200642 173.30884568 5.5 176 C9.10012756 179.90981595 12.64417605 183.85866468 16.125 187.875 C18.54550572 190.61823982 21.022265 193.30860252 23.5 196 C29.26386839 202.27069969 34.90404222 208.60624044 40.3125 215.1875 C40.96863281 215.98542969 41.62476563 216.78335938 42.30078125 217.60546875 C46.83084872 223.989219 46.67986748 230.41267894 46 238 C44.15243489 246.75830484 36.97212416 252.78864912 31 259 C29.8224987 260.32377475 28.65415148 261.65581874 27.5 263 C24.0932265 266.9308925 20.56997215 270.75196573 17.046875 274.578125 C14.49444857 277.35494057 11.97016712 280.14980717 9.5 283 C6.0932265 286.9308925 2.56997215 290.75196573 -0.953125 294.578125 C-3.50555143 297.35494057 -6.02983288 300.14980717 -8.5 303 C-11.43844065 306.39050844 -14.46116302 309.69966982 -17.5 313 C-21.13995373 316.95401782 -24.73930808 320.93487108 -28.24609375 325.0078125 C-29.56523783 326.50617214 -30.91747172 327.97549985 -32.28515625 329.4296875 C-38.46974881 336.04669873 -43.07780057 341.19881856 -43.5 350.5 C-42.94962161 361.6604507 -35.73510435 367.86826429 -28.39648438 375.52685547 C-26.68966316 377.32737281 -25.05519701 379.1817309 -23.4375 381.0625 C-20.52202083 384.43419107 -17.51924358 387.72142867 -14.5 391 C-10.89984677 394.90979181 -7.35582336 398.85866536 -3.875 402.875 C-1.45449858 405.61823494 1.02204178 408.30881243 3.5 411 C7.13228657 414.94568912 10.71703443 418.92457256 14.23046875 422.9765625 C17.77250742 427.02684072 21.39252094 431.00805038 25 435 C23.70176525 438.81562395 22.25033142 441.07090879 19.3125 443.8125 C16.5229333 446.49594188 13.85671725 449.20696135 11.3125 452.125 C10.73757812 452.78371094 10.16265625 453.44242187 9.5703125 454.12109375 C8.20584419 455.75370384 6.93695554 457.4652775 5.6875 459.1875 C0.60528031 464.506102 -5.24711236 467.26533508 -12.625 467.5625 C-23.71510897 466.93946017 -29.66955762 459.95332554 -36.73828125 452.05859375 C-37.84984414 450.78785718 -38.95511689 449.51159637 -40.0546875 448.23046875 C-42.48723615 445.44134169 -44.99178614 442.72082451 -47.5 440 C-51.10037579 436.09041547 -54.64418132 432.14132925 -58.125 428.125 C-60.54550075 425.38176582 -63.02200642 422.69115432 -65.5 420 C-69.10012756 416.09018405 -72.64417605 412.14133532 -76.125 408.125 C-78.54550075 405.38176582 -81.02200642 402.69115432 -83.5 400 C-87.10012756 396.09018405 -90.64417605 392.14133532 -94.125 388.125 C-96.54550075 385.38176582 -99.02200642 382.69115432 -101.5 380 C-105.10012756 376.09018405 -108.64417605 372.14133532 -112.125 368.125 C-114.54550075 365.38176582 -117.02200642 362.69115432 -119.5 360 C-123.10012756 356.09018405 -126.64417605 352.14133532 -130.125 348.125 C-132.54550075 345.38176582 -135.02200642 342.69115432 -137.5 340 C-141.10012756 336.09018405 -144.64417605 332.14133532 -148.125 328.125 C-150.54550075 325.38176582 -153.02200642 322.69115432 -155.5 320 C-159.10012756 316.09018405 -162.64417605 312.14133532 -166.125 308.125 C-168.54550075 305.38176582 -171.02200642 302.69115432 -173.5 300 C-177.10012756 296.09018405 -180.64417605 292.14133532 -184.125 288.125 C-186.54550142 285.38176506 -189.02204178 282.69118757 -191.5 280 C-195.14311639 276.04254664 -198.74686697 272.05939933 -202.25390625 267.98046875 C-203.54343668 266.51784699 -204.86966323 265.08739044 -206.21484375 263.67578125 C-214.88831627 254.48276628 -220.90731471 244.97028918 -221.02734375 232.05859375 C-220.22219377 215.89365957 -211.39901082 206.33624189 -200.8828125 195.09765625 C-198.68758936 192.74926159 -196.53985148 190.36993082 -194.4375 187.9375 C-191.52202083 184.56580893 -188.51924358 181.27857133 -185.5 178 C-182.46109823 174.69973124 -179.438439 171.39050653 -176.5 168 C-173.0932265 164.0691075 -169.56997215 160.24803427 -166.046875 156.421875 C-163.49444857 153.64505943 -160.97016712 150.85019283 -158.5 148 C-155.0932265 144.0691075 -151.56997215 140.24803427 -148.046875 136.421875 C-145.49444857 133.64505943 -142.97016712 130.85019283 -140.5 128 C-137.0932265 124.0691075 -133.56997215 120.24803427 -130.046875 116.421875 C-127.49444857 113.64505943 -124.97016712 110.85019283 -122.5 108 C-119.0932265 104.0691075 -115.56997215 100.24803427 -112.046875 96.421875 C-109.49444857 93.64505943 -106.97016712 90.85019283 -104.5 88 C-101.0932265 84.0691075 -97.56997215 80.24803427 -94.046875 76.421875 C-91.49444857 73.64505943 -88.97016712 70.85019283 -86.5 68 C-83.0932265 64.0691075 -79.56997215 60.24803427 -76.046875 56.421875 C-73.49444857 53.64505943 -70.97016712 50.85019283 -68.5 48 C-65.0932265 44.0691075 -61.56997215 40.24803427 -58.046875 36.421875 C-55.49444857 33.64505943 -52.97016712 30.85019283 -50.5 28 C-47.0973631 24.0738805 -43.58090826 20.25493377 -40.05786133 16.43725586 C-37.37644579 13.52517096 -34.75556176 10.57470548 -32.1875 7.5625 C-23.27928964 -2.63952186 -12.56289012 -6.40624198 0 0 Z " fill="#882A7F" transform="translate(231,24)"/>
<path d="M0 0 C5.46433819 3.51042332 9.45115047 8.71667738 13.578125 13.65625 C14.74133488 14.99260013 15.90750759 16.32638393 17.078125 17.65625 C17.614375 18.275 18.150625 18.89375 18.703125 19.53125 C21.12362575 22.27448418 23.60013142 24.96509568 26.078125 27.65625 C29.67825256 31.56606595 33.22230105 35.51491468 36.703125 39.53125 C39.12362575 42.27448418 41.60013142 44.96509568 44.078125 47.65625 C47.67825256 51.56606595 51.22230105 55.51491468 54.703125 59.53125 C57.12363535 62.27449507 59.60063106 64.96462593 62.078125 67.65625 C63.91254296 69.65525938 65.74540205 71.65568537 67.578125 73.65625 C68.59326172 74.76033203 68.59326172 74.76033203 69.62890625 75.88671875 C79.80902509 87.19545386 84.46502214 96.95284766 83.98046875 112.171875 C83.21040582 123.58128096 77.32456657 130.77532159 69.578125 138.65625 C68.44265517 139.93872262 67.31698353 141.22996335 66.203125 142.53125 C62.79333347 146.44619583 59.28472537 150.26802396 55.77050781 154.08886719 C51.33615497 158.91171911 46.95309599 163.77949023 42.578125 168.65625 C41.07841372 170.32317647 39.57841179 171.98984149 38.078125 173.65625 C37.335625 174.48125 36.593125 175.30625 35.828125 176.15625 C30.578125 181.98958333 25.328125 187.82291667 20.078125 193.65625 C19.34335937 194.47351563 18.60859375 195.29078125 17.8515625 196.1328125 C16.2768523 197.88068671 14.6984749 199.62526138 13.1171875 201.3671875 C12.32054687 202.24632812 11.52390625 203.12546875 10.703125 204.03125 C9.98382813 204.82273437 9.26453125 205.61421875 8.5234375 206.4296875 C6.57293295 208.58311742 6.57293295 208.58311742 5.06640625 210.80859375 C3.40214508 212.87472376 2.02709268 213.72151472 -0.359375 214.84375 C-1.02839844 215.16730469 -1.69742188 215.49085938 -2.38671875 215.82421875 C-9.61564237 218.77961363 -15.77268495 217.94564275 -22.84960938 215.01831055 C-27.11622867 212.7590595 -29.98091314 209.52195888 -33.109375 205.90625 C-34.02686523 204.88917969 -34.02686523 204.88917969 -34.96289062 203.8515625 C-36.80278414 201.80334242 -38.61581046 199.73432698 -40.421875 197.65625 C-44.68890914 192.75719104 -48.9920825 187.90879605 -53.421875 183.15625 C-57.21175838 179.07155241 -60.94362892 174.9522765 -64.58984375 170.73828125 C-67.42051761 167.52133207 -70.32954516 164.3765432 -73.23022461 161.22290039 C-76.92723182 157.20182749 -80.5927722 153.15383174 -84.23828125 149.0859375 C-85.71834378 147.43907007 -87.20557188 145.79861946 -88.69921875 144.1640625 C-100.56780048 131.13905485 -108.4725141 121.77019874 -107.73046875 103.64453125 C-106.73127273 88.329452 -95.17747677 78.04972609 -85.10546875 67.55078125 C-81.98226105 64.28399676 -78.99140975 60.92136731 -76.03149414 57.5065918 C-73.8681123 55.01967067 -71.64780602 52.58720098 -69.421875 50.15625 C-66.57663272 47.03717989 -63.7498792 43.90869609 -60.984375 40.71875 C-57.55418924 36.76957633 -54.01183982 32.92602695 -50.46899414 29.07836914 C-47.91647047 26.3014863 -45.39211754 23.50652985 -42.921875 20.65625 C-39.9381636 17.2267793 -36.91180884 13.83709433 -33.859375 10.46875 C-33.41207031 9.96923828 -32.96476562 9.46972656 -32.50390625 8.95507812 C-23.19552234 -1.26509193 -13.45642578 -5.92421261 0 0 Z " fill="#E696C8" transform="translate(417.421875,148.34375)"/>
</svg>
