<svg width="720" height="720" viewBox="0 0 720 720" fill="none" xmlns="http://www.w3.org/2000/svg">
<rect width="720" height="720" rx="130" fill="#005857"/>
<g clip-path="url(#clip0_306_1174)">
<path d="M273.57 218.279C273.576 226.808 271.052 235.147 266.317 242.241C261.583 249.335 254.85 254.865 246.971 258.132C239.093 261.399 230.422 262.255 222.057 260.592C213.692 258.93 206.008 254.823 199.977 248.793C193.946 242.762 189.839 235.078 188.177 226.712C186.515 218.347 187.371 209.676 190.637 201.798C193.904 193.919 199.434 187.187 206.528 182.452C213.622 177.717 221.961 175.193 230.49 175.199C241.913 175.207 252.866 179.748 260.943 187.826C269.021 195.903 273.562 206.856 273.57 218.279Z" fill="#2CD5C4"/>
<path d="M536.61 218.28C536.586 226.779 534.042 235.08 529.299 242.133C524.556 249.185 517.828 254.673 509.965 257.901C502.103 261.128 493.46 261.951 485.129 260.266C476.799 258.58 469.156 254.461 463.167 248.43C457.178 242.399 453.113 234.728 451.485 226.386C449.858 218.044 450.741 209.407 454.024 201.567C457.306 193.727 462.841 187.037 469.926 182.344C477.012 177.65 485.331 175.164 493.83 175.2C505.199 175.294 516.07 179.873 524.081 187.94C532.092 196.007 536.595 206.911 536.61 218.28Z" fill="#2CD5C4"/>
<path d="M361.98 538.44C316.264 538.409 272.431 520.228 240.114 487.893C207.796 455.559 189.638 411.716 189.63 366V338.64C189.42 333.191 190.313 327.755 192.253 322.658C194.194 317.561 197.144 312.909 200.925 308.979C204.706 305.049 209.242 301.923 214.26 299.787C219.279 297.652 224.676 296.551 230.13 296.551C235.584 296.551 240.981 297.652 246 299.787C251.018 301.923 255.554 305.049 259.335 308.979C263.117 312.909 266.066 317.561 268.007 322.658C269.948 327.755 270.84 333.191 270.63 338.64V367.05C270.63 417.15 300.33 458.01 361.62 458.01C418.62 458.01 452.58 417.15 452.58 367.05V338.64C452.28 333.136 453.106 327.629 455.006 322.455C456.906 317.28 459.84 312.548 463.63 308.545C467.421 304.543 471.987 301.355 477.05 299.177C482.114 296.999 487.568 295.875 493.08 295.875C498.592 295.875 504.047 296.999 509.11 299.177C514.173 301.355 518.74 304.543 522.53 308.545C526.32 312.548 529.255 317.28 531.155 322.455C533.054 327.629 533.88 333.136 533.58 338.64V366C533.687 388.613 529.322 411.024 520.736 431.943C512.15 452.863 499.512 471.878 483.55 487.896C467.589 503.913 448.617 516.617 427.728 525.276C406.838 533.935 384.443 538.378 361.83 538.35" fill="white"/>
</g>
<defs>
<clipPath id="clip0_306_1174">
<rect width="450" height="450" fill="white" transform="translate(135 135)"/>
</clipPath>
</defs>
</svg>
